# xmcd CD database file
# Generated: Sun Dec 15 16:18:38 2002 by KSCD
# 
# Track frame offsets:
#       150
#       12694
#       28137
#       42324
#       51406
#       60899
#       70179
#       81767
#       90358
#       99648
#       108229
#       116419
#
# Disc length: 1822 seconds
#
# Revision: 2
# Processed by: cddbd v1.4PL0 Copyright (c) Steve Scherf et al.
# Submitted via: Kscd 1.3.0
#
DISCID=96071c0c
DTITLE=Freda and the Firedogs - Freda and the Firedogs
DYEAR=1900
DGENRE=
TTITLE0=Make Me a Pallet
TTITLE1=Cold Wind
TTITLE2=When You Come Home Again
TTITLE3=Your Good Girl's Gonna Go Bad
TTITLE4=Dry Creek Inn
TTITLE5=Fist City
TTITLE6=Stand By Your Man
TTITLE7=EZ Rider
TTITLE8=The Only Thing Missing Is you
TTITLE9=Jambalaya
TTITLE10=Marcia's Song
TTITLE11=Today I Started Loving Your Again
EXTD=
EXTT0=
EXTT1=
EXTT2=
EXTT3=
EXTT4=
EXTT5=
EXTT6=
EXTT7=
EXTT8=
EXTT9=
EXTT10=
EXTT11=
PLAYORDER=
